{"asset":{"version":"2.0","generator":"babylon.js glTF exporter for Autodesk MAYA 2023 v20220923.2"},"scene":0,"scenes":[{"nodes":[0,55]}],"nodes":[{"children":[1,8,15],"rotation":[-0.7071068,0.0,0.0,0.7071067],"scale":[100.0,100.0,100.0],"name":"Root"},{"children":[2,6,7],"translation":[0.002042088,0.00148809969,0.00193204789],"rotation":[-0.499999881,-0.50000006,0.5000001,0.499999881],"scale":[1.0,0.99999994,0.99999994],"name":"LeftFootCtrl"},{"children":[3],"translation":[0.0007085253,0.00179901428,-0.000222404284],"rotation":[0.5075118,-0.508228362,0.491906255,0.49210155],"scale":[0.99999994,0.99999994,1.0],"name":"LeftHeelRoll"},{"children":[4],"translation":[-0.000286642375,0.00306932861,1.04252949E-05],"rotation":[0.0157358553,-0.0020787376,0.994624734,-0.10232155],"scale":[0.999998152,0.9999999,0.99999994],"name":"LeftToeRoll"},{"children":[5],"translation":[-1.821423E-05,0.00241521746,0.00180049951],"rotation":[-0.946128845,0.0218708515,-0.07550261,0.314103842],"scale":[1.0,0.99999994,1.0],"name":"LeftFootIK"},{"translation":[0.0,0.00301254238,0.0],"name":"LeftFootIK_end"},{"translation":[1.05442106E-10,-5.425903E-10,-1.1862861E-12],"rotation":[0.49999997,0.49999997,-0.499999851,0.5000002],"scale":[0.99999994,0.99999994,1.0],"name":"LeftFootRollCtrl"},{"translation":[-0.006179578,-0.00586700533,0.000258870219],"rotation":[-0.707106948,5.33850546E-08,0.7071066,5.33851E-08],"scale":[0.99999994,1.0,0.99999994],"name":"LeftKneeCtrl"},{"children":[9,13,14],"translation":[-0.00207520486,0.00148810027,0.00193204789],"rotation":[-0.499999881,-0.50000006,0.5000001,0.499999881],"scale":[1.0,0.99999994,0.99999994],"name":"RightFootCtrl"},{"children":[10],"translation":[0.0007085256,0.00179901428,0.000222404022],"rotation":[0.507685661,-0.507902,0.491727918,0.4924373],"scale":[0.9999999,1.0,1.0],"name":"RightHeelRoll"},{"children":[11],"translation":[0.0002867288,0.00306932861,-7.687028E-06],"rotation":[0.0156757683,0.001151738,0.9946257,0.102336444],"scale":[0.9999933,0.9999999,1.0],"name":"RightToeRoll"},{"children":[12],"translation":[1.8214083E-05,0.00241521746,0.00180049951],"rotation":[-0.9481119,-0.01144497,0.0440931432,0.314656347],"scale":[1.00000012,0.9999998,0.999999762],"name":"RightFootIK"},{"translation":[0.0,0.00301254261,0.0],"name":"RightFootIK_end"},{"translation":[-3.02660119E-11,-4.64247335E-10,-1.18649925E-12],"rotation":[0.49999997,0.49999997,-0.499999851,0.5000002],"scale":[0.99999994,0.99999994,1.0],"name":"RightFootRollCtrl"},{"translation":[-0.0061795786,-0.00586700533,-0.0002919822],"rotation":[-0.707106948,5.33850546E-08,0.7071066,5.33851E-08],"scale":[0.99999994,1.0,0.99999994],"name":"RightKneeCtrl"},{"children":[16],"translation":[-2.23408756E-06,-0.000312402553,0.015641721],"rotation":[-0.000954656745,-0.7071061,0.707106,-0.00108620012],"scale":[0.9999998,1.00000012,0.99999994],"name":"HipsCtrl"},{"children":[17,45,50],"translation":[4.645995E-06,0.00321951,-4.69114136E-10],"rotation":[9.30144452E-05,-2.66477883E-07,0.9999989,0.00144310354],"scale":[1.00000393,0.9999999,0.9999999],"name":"Hips"},{"children":[18],"translation":[-5.046533E-14,0.003219516,7.755615E-12],"rotation":[-0.0610425733,-1.11396661E-08,-6.81264267E-10,0.9981351],"scale":[1.000004,0.99999994,1.00000024],"name":"Spine"},{"children":[19],"translation":[1.36244965E-13,0.00287048821,2.560622E-10],"rotation":[0.0118946424,1.32733366E-10,1.11583E-08,0.9999292],"scale":[1.0,0.9999998,0.99999994],"name":"Chest"},{"children":[20,23,34],"translation":[4.39977161E-15,0.003052766,-2.607736E-10],"rotation":[0.0491657853,0.0,0.0,0.9987907],"scale":[1.0,1.00000012,1.0],"name":"UpperChest"},{"children":[21],"translation":[2.297077E-14,0.002708645,-4.29350132E-11],"rotation":[0.07661577,0.0,0.0,0.9970607],"scale":[1.0,0.99999994,0.9999999],"name":"Neck"},{"children":[22],"translation":[1.3696619E-13,0.00278009265,-1.39695144E-10],"rotation":[-0.0741352662,0.0,0.0,0.997248232],"scale":[1.000004,0.9999999,1.0],"name":"Head"},{"translation":[0.0,0.0100441,0.0],"name":"Head_end"},{"children":[24],"translation":[0.0008828004,0.00281081884,0.0006496106],"rotation":[-0.586882,-0.410653621,-0.548294544,0.431632131],"scale":[0.999999762,0.9999998,0.9999998],"name":"LeftShoulder"},{"children":[25],"translation":[0.0,0.00258801435,-2.56957722E-09],"rotation":[0.0838900059,0.710813,0.06131062,0.695664],"scale":[1.0000006,0.9999958,1.00000691],"name":"LeftArm"},{"children":[26],"translation":[-2.99623926E-09,0.00470774947,2.3283063E-11],"rotation":[0.0467615426,0.0125732739,0.00544629339,0.9988121],"scale":[0.9999999,0.99999994,1.0],"name":"LeftForeArm"},{"children":[27,31],"translation":[-2.58907673E-09,0.0052722767,-3.72529022E-11],"rotation":[-0.0265467782,0.7247397,-0.0213081818,0.6881814],"scale":[0.9999999,0.9999996,0.9999999],"name":"LeftHand"},{"children":[28],"translation":[-4.6566126E-11,0.00138599775,-1.87428673E-09],"rotation":[0.0567273833,-0.07746504,0.000148538849,0.9953799],"scale":[0.99999994,1.0,0.9999999],"name":"LeftHandIndex1"},{"children":[29],"translation":[-1.11758706E-10,0.0011282143,-7.310882E-10],"rotation":[0.0813737661,0.0669221953,-0.0006391019,0.9944342],"scale":[0.99999994,1.0,0.99999994],"name":"LeftHandIndex2"},{"children":[30],"translation":[3.72529022E-11,0.00102130417,-3.4901313E-09],"rotation":[0.0309717748,-0.030524252,0.0008921603,0.999053657],"scale":[0.9999997,1.00000036,1.0],"name":"LeftHandIndex3"},{"translation":[0.0,0.0013049884,0.0],"name":"LeftHandIndex3_end"},{"children":[32],"translation":[-0.000651483366,0.000509810343,2.44537368E-05],"rotation":[-0.336072654,0.630712,0.4469286,0.538063645],"name":"LeftHandThumb1"},{"children":[33],"translation":[1.49011609E-10,0.00105867791,-1.73226E-09],"rotation":[0.201200068,-0.0134934289,0.0039301673,0.9794494],"scale":[0.99999994,1.0,1.0],"name":"LeftHandThumb2"},{"translation":[0.0,0.0013225968,0.0],"name":"LeftHandThumb2_end"},{"children":[35],"translation":[-0.000882800552,0.00281081884,0.0006496106],"rotation":[-0.658379555,0.507611156,-0.459993452,-0.311886728],"scale":[1.0,0.99999994,1.0],"name":"RightShoulder"},{"children":[36],"translation":[1.49011609E-10,0.002588014,-5.727634E-10],"rotation":[0.0009363191,-0.9648764,0.103902481,0.241281852],"scale":[1.00000691,0.9999955,1.00000131],"name":"RightArm"},{"children":[37],"translation":[-1.53668217E-10,0.004707749,2.45199772E-09],"rotation":[0.0007336912,-0.00476749241,0.04707185,0.99887985],"scale":[1.0,0.99999994,1.00000012],"name":"RightForeArm"},{"children":[38,42],"translation":[7.45058043E-11,0.005272276,9.03382869E-10],"rotation":[0.008204221,0.0003330627,-0.0330372639,0.9994204],"scale":[0.99999994,0.9999999,0.9999999],"name":"RightHand"},{"children":[39],"translation":[2.70083539E-10,0.0013859981,-1.16415315E-11],"rotation":[-0.0567272641,-0.0774636343,-0.000148471,0.995380044],"scale":[1.00000012,1.0,1.0],"name":"RightHandIndex1"},{"children":[40],"translation":[2.04890965E-10,0.00112821243,-8.405186E-10],"rotation":[-0.08137266,0.06692128,0.0006392502,0.9944344],"scale":[1.0,0.99999994,0.99999994],"name":"RightHandIndex2"},{"children":[41],"translation":[1.49011609E-10,0.00102130591,1.33644784E-09],"rotation":[-0.0309738424,-0.0305230245,-0.0008921936,0.999053657],"scale":[0.9999999,0.9999998,0.9999999],"name":"RightHandIndex3"},{"translation":[0.0,0.00130498828,0.0],"name":"RightHandIndex3_end"},{"children":[43],"translation":[-0.000639192353,0.000509811856,-0.000128300831],"rotation":[0.358374,-0.7295987,0.4292521,0.393695951],"scale":[1.0,1.0,0.99999994],"name":"RightHandThumb1"},{"children":[44],"translation":[2.98023217E-10,0.001058677,-2.60770322E-10],"rotation":[-0.190902889,-0.0256714132,0.06366158,0.979205966],"scale":[0.9999999,1.0,1.0],"name":"RightHandThumb2"},{"translation":[0.0,0.0013225968,0.0],"name":"RightHandThumb2_end"},{"children":[46],"translation":[0.002015291,0.000584633031,7.509206E-10],"rotation":[-0.986703038,-0.00106097583,-0.16252847,-0.0006699397],"scale":[1.0000546,1.00000131,1.00000036],"name":"LeftUpLeg"},{"children":[47],"translation":[1.49011609E-10,0.00526174065,2.44472168E-11],"rotation":[0.14157401,0.03244448,0.05285428,0.9879831],"scale":[0.999999464,0.9999988,1.00000226],"name":"LeftLeg"},{"children":[48],"translation":[-5.58793532E-11,0.00608811,1.862645E-10],"rotation":[-0.5438065,-0.194181249,-0.187543511,0.794604063],"scale":[1.0000205,0.9999836,0.999995768],"name":"LeftFoot"},{"children":[49],"translation":[-6.402843E-11,0.00301253935,-9.31322554E-12],"rotation":[0.01981786,-0.9522868,0.298255265,-0.0616514],"scale":[0.999999762,0.9999999,0.999999762],"name":"LeftToes"},{"translation":[0.0,0.002132363,0.0],"name":"LeftToes_end"},{"children":[51],"translation":[-0.002015291,0.0005846331,7.520936E-10],"rotation":[-0.9765877,0.00135879638,0.215114757,-0.00048424222],"scale":[0.9999869,0.9999994,0.9999992],"name":"RightUpLeg"},{"children":[52],"translation":[-6.984919E-11,0.00526174065,-4.83123576E-11],"rotation":[0.138947874,0.0115101263,-0.05917322,0.9884632],"scale":[0.9999991,1.00000036,1.0],"name":"RightLeg"},{"children":[53],"translation":[-1.30385161E-10,0.0060881176,-1.862645E-10],"rotation":[-0.5484955,0.228829131,0.1718208,0.7856637],"scale":[0.999995,1.0000037,1.00000119],"name":"RightFoot"},{"children":[54],"translation":[2.61934474E-10,0.00301254448,-1.862645E-10],"rotation":[-0.0282608848,-0.953941166,0.297573656,0.0254467465],"scale":[1.0,1.00000024,1.0],"name":"RightToes"},{"translation":[0.0,0.002132363,0.0],"name":"RightToes_end"},{"skin":0,"mesh":0,"rotation":[-0.7071068,0.0,0.0,0.7071067],"scale":[100.0,100.0,100.0],"name":"characterMedium_smallerHead","extras":{"currentUVSet":"UVMap"}}],"meshes":[{"primitives":[{"attributes":{"POSITION":1,"TANGENT":2,"NORMAL":3,"COLOR_0":4,"TEXCOORD_0":5,"JOINTS_0":6,"JOINTS_1":7,"WEIGHTS_0":8,"WEIGHTS_1":9},"indices":0,"material":0}],"name":"characterMedium_smallerHead"}],"accessors":[{"bufferView":0,"componentType":5123,"count":4812,"type":"SCALAR","name":"accessorIndices"},{"bufferView":1,"componentType":5126,"count":1029,"max":[0.0180953424,0.00301228766,0.0320981219],"min":[-0.01809052,-0.00341520132,6.828897E-06],"type":"VEC3","name":"accessorPositions"},{"bufferView":2,"componentType":5126,"count":1029,"type":"VEC4","name":"accessorTangents"},{"bufferView":1,"byteOffset":12348,"componentType":5126,"count":1029,"type":"VEC3","name":"accessorNormals"},{"bufferView":2,"byteOffset":16464,"componentType":5126,"count":1029,"type":"VEC4","name":"accessorColors"},{"bufferView":3,"componentType":5126,"count":1029,"type":"VEC2","name":"accessorUVs"},{"bufferView":4,"componentType":5123,"count":1029,"type":"VEC4","name":"accessorJoints"},{"bufferView":4,"byteOffset":8232,"componentType":5123,"count":1029,"type":"VEC4","name":"accessorJointsExtra"},{"bufferView":2,"byteOffset":32928,"componentType":5126,"count":1029,"type":"VEC4","name":"accessorWeights"},{"bufferView":2,"byteOffset":49392,"componentType":5126,"count":1029,"type":"VEC4","name":"accessorWeightsExtra"},{"bufferView":5,"componentType":5126,"count":55,"type":"MAT4","name":"accessorInverseBindMatrices"}],"bufferViews":[{"buffer":0,"byteLength":9624,"name":"bufferViewScalar"},{"buffer":0,"byteOffset":9624,"byteLength":24696,"byteStride":12,"name":"bufferViewFloatVec3"},{"buffer":0,"byteOffset":34320,"byteLength":65856,"byteStride":16,"name":"bufferViewFloatVec4"},{"buffer":0,"byteOffset":100176,"byteLength":8232,"byteStride":8,"name":"bufferViewFloatVec2"},{"buffer":0,"byteOffset":108408,"byteLength":16464,"byteStride":8,"name":"bufferViewUnsignedShortVec4"},{"buffer":0,"byteOffset":124872,"byteLength":3520,"name":"bufferViewFloatMat4"}],"buffers":[{"uri":"characterMedium_smallerHead.bin","byteLength":128392}],"materials":[{"pbrMetallicRoughness":{"baseColorFactor":[0.8,0.8,0.8,1.0],"metallicFactor":0.0,"roughnessFactor":0.293834269},"name":"skin"}],"skins":[{"inverseBindMatrices":10,"skeleton":0,"joints":[0,1,2,3,4,5,6,7,8,9,10,11,12,13,14,15,16,17,18,19,20,21,22,23,24,25,26,27,28,29,30,31,32,33,34,35,36,37,38,39,40,41,42,43,44,45,46,47,48,49,50,51,52,53,54],"name":"skeleton #0"}]}